<?xml version="1.0" encoding="UTF-8"?>
<svg xmlns="http://www.w3.org/2000/svg" xmlns:xlink="http://www.w3.org/1999/xlink" viewBox="0 0 48 48" width="48px" height="48px">
<g id="surface16658364">
<path style=" stroke:none;fill-rule:nonzero;fill:rgb(0%,0%,0%);fill-opacity:1;" d="M 19.78125 31.910156 C 20.28125 30.921875 19.890625 29.71875 18.910156 29.21875 L 15.820312 27.648438 C 16.449219 27.238281 17.199219 27 18 27 C 20.210938 27 22 28.789062 22 31 C 22 33.210938 20.210938 35 18 35 C 15.859375 35 14.121094 33.320312 14.011719 31.210938 L 17.089844 32.78125 C 17.378906 32.929688 17.691406 33 18 33 C 18.730469 33 19.429688 32.601562 19.78125 31.910156 Z M 19.78125 31.910156 "/>
<path style=" stroke:none;fill-rule:nonzero;fill:rgb(0%,0%,0%);fill-opacity:1;" d="M 29 13 C 25.691406 13 23 15.691406 23 19 C 23 22.308594 25.691406 25 29 25 C 32.308594 25 35 22.308594 35 19 C 35 15.691406 32.308594 13 29 13 Z M 29 23 C 26.789062 23 25 21.210938 25 19 C 25 16.789062 26.789062 15 29 15 C 31.210938 15 33 16.789062 33 19 C 33 21.210938 31.210938 23 29 23 Z M 29 23 "/>
<path style=" stroke:none;fill-rule:nonzero;fill:rgb(0%,0%,0%);fill-opacity:1;" d="M 44 24 C 44 35.050781 35.050781 44 24 44 C 13.691406 44 5.210938 36.210938 4.121094 26.191406 L 12.058594 30.21875 C 12.019531 30.480469 12 30.738281 12 31 C 12 34.308594 14.691406 37 18 37 C 21.308594 37 24 34.308594 24 31 C 24 30.828125 23.988281 30.671875 23.96875 30.5 C 24.398438 30.238281 24.851562 29.960938 25.328125 29.671875 C 26.71875 28.839844 28.25 27.898438 29.480469 26.980469 C 33.671875 26.730469 37 23.261719 37 19 C 37 14.578125 33.421875 11 29 11 C 24.578125 11 21 14.578125 21 19 C 21 19.089844 21.011719 19.179688 21.011719 19.28125 C 20.191406 20.421875 19.378906 21.761719 18.648438 22.980469 C 18.179688 23.75 17.738281 24.480469 17.371094 25.03125 C 16.011719 25.171875 14.800781 25.769531 13.859375 26.660156 L 4.128906 21.710938 C 5.269531 11.738281 13.730469 4 24 4 C 35.050781 4 44 12.949219 44 24 Z M 44 24 "/>
</g>
</svg>
